<?xml version="1.0" standalone="no"?>
<!DOCTYPE svg PUBLIC "-//W3C//DTD SVG 20010904//EN"
 "http://www.w3.org/TR/2001/REC-SVG-20010904/DTD/svg10.dtd">
<svg version="1.0" xmlns="http://www.w3.org/2000/svg"
 width="700.000000pt" height="700.000000pt" viewBox="0 0 700.000000 700.000000"
 preserveAspectRatio="xMidYMid meet">
<metadata>
Created by potrace 1.11, written by Peter Selinger 2001-2013
</metadata>
<g transform="translate(0.000000,700.000000) scale(0.100000,-0.100000)"
fill="#000000" stroke="none">
<path d="M3299 6936 c-2 -2 -44 -6 -94 -10 -49 -3 -99 -8 -110 -10 -11 -2 -47
-7 -80 -11 -32 -4 -68 -9 -80 -11 -11 -2 -45 -8 -75 -14 -83 -15 -100 -19
-118 -24 -9 -3 -30 -7 -46 -10 -39 -7 -159 -42 -286 -83 -240 -79 -538 -218
-714 -334 -32 -22 -60 -39 -62 -39 -7 0 -133 -89 -219 -154 -190 -144 -406
-351 -568 -547 -341 -413 -591 -921 -701 -1429 -22 -102 -30 -142 -50 -265
-38 -227 -43 -671 -10 -925 6 -46 38 -230 49 -285 108 -526 373 -1070 727
-1491 407 -485 939 -850 1532 -1050 159 -54 242 -78 306 -89 3 0 28 -6 55 -13
98 -23 320 -58 440 -69 161 -14 619 -7 722 11 10 2 39 6 64 10 131 19 315 56
399 81 25 7 65 18 90 25 436 124 883 365 1250 674 105 89 305 286 391 386 253
295 475 670 604 1020 15 41 33 89 40 105 41 97 135 490 151 630 3 33 8 69 10
80 18 94 26 520 12 685 -81 977 -575 1877 -1348 2459 -52 39 -99 74 -105 78
-36 28 -216 140 -295 185 -379 216 -854 369 -1275 413 -33 4 -71 9 -85 12 -30
6 -515 15 -521 9z"/>
</g>
</svg>
